<?xml version="1.0" encoding="UTF-8"?>
<svg id="Capa_2" data-name="Capa 2" xmlns="http://www.w3.org/2000/svg" viewBox="0 0 260.17 63.53">
  <defs>
    <style>
      .cls-1 {
        stroke-width: 0px;
      }
    </style>
  </defs>
  <g id="Capa_3" data-name="Capa 3">
    <g>
      <path class="cls-1" d="M54.47.04c-7.67,0-13.9,6.23-13.91,13.9-2.95-1.8-6.26-3.05-9.79-3.6L36.7,0h-19.65L4.13,22.43C1.55,26.66,0,31.51,0,36.78c0,14.77,11.98,26.75,26.74,26.75s26.64-11.98,26.64-26.75c0-3.23-.58-6.32-1.63-9.18.88.17,1.78.27,2.71.27,7.67,0,13.91-6.24,13.91-13.91S62.14.04,54.47.04ZM26.74,46.08c-5.16,0-9.3-4.13-9.3-9.3s4.13-9.29,9.3-9.29,9.19,4.13,9.19,9.29-4.13,9.3-9.19,9.3ZM54.47,19.77c-3.21,0-5.81-2.61-5.81-5.81s2.61-5.81,5.81-5.81,5.81,2.61,5.81,5.81-2.61,5.81-5.81,5.81Z"/>
      <g>
        <path class="cls-1" d="M87.73.84c6.26,0,10.82,4.25,10.82,10.83v40.21c0,6.57-4.56,10.83-10.82,10.83h-10.82V.84h10.82ZM84.64,54.96h3.09c1.7,0,3.09-1.39,3.09-3.09V11.67c0-1.7-1.39-3.09-3.09-3.09h-3.09v46.39Z"/>
        <path class="cls-1" d="M125.62,10.89v14.38c0,6.26-3.32,10.36-8.35,10.36-2.63,0-3.94-.85-5.1-1.78h-.93l.46,3.25v15.54c0,1.7,1.39,3.09,3.09,3.09s3.09-1.39,3.09-3.09v-10.83h7.73v10.83c0,6.57-4.56,10.82-10.82,10.82s-10.82-4.25-10.82-10.82V10.89c0-6.57,4.56-10.82,10.82-10.82s10.82,4.25,10.82,10.82ZM111.7,10.89v15.93c.62.7,1.55,1.08,3.09,1.08,1.7,0,3.09-1.39,3.09-3.09v-13.92c0-1.7-1.39-3.09-3.09-3.09s-3.09,1.39-3.09,3.09Z"/>
        <path class="cls-1" d="M152.61,10.89v10.83h-7.73v-10.83c0-1.7-1.39-3.09-3.09-3.09s-3.09,1.39-3.09,3.09v41.75c0,1.7,1.16,3.09,2.94,3.09,1.93,0,3.25-1.47,3.25-3.71v-15.85h-3.09v-7.11h10.82v33.63h-7.27l.62-5.8h-.93c-1.16,4.25-3.71,6.57-7.19,6.57-4.48,0-6.88-3.4-6.88-8.81V10.89c0-6.57,4.56-10.82,10.82-10.82s10.82,4.25,10.82,10.82Z"/>
        <path class="cls-1" d="M169.39.84c6.26,0,10.82,4.25,10.82,10.83v10.52c0,6.42-2.94,9.67-7.89,10.28v.93c5.1.85,7.81,2.94,7.81,10.13v19.18h-7.73v-19.18c0-4.48-1.7-6.8-4.95-6.8h-1.24v25.98h-7.73V.84h10.9ZM166.22,29.6h1.55c3.32,0,4.72-1.78,4.72-5.41v-12.53c0-1.7-1.39-3.09-3.09-3.09h-3.17v21.03Z"/>
        <path class="cls-1" d="M206.89,10.89v14.38c0,6.26-3.32,10.36-8.35,10.36-2.63,0-3.94-.85-5.1-1.78h-.93l.46,3.25v15.54c0,1.7,1.39,3.09,3.09,3.09s3.09-1.39,3.09-3.09v-10.83h7.73v10.83c0,6.57-4.56,10.82-10.82,10.82s-10.82-4.25-10.82-10.82V10.89c0-6.57,4.56-10.82,10.82-10.82s10.82,4.25,10.82,10.82ZM192.97,10.89v15.93c.62.7,1.55,1.08,3.09,1.08,1.7,0,3.09-1.39,3.09-3.09v-13.92c0-1.7-1.39-3.09-3.09-3.09s-3.09,1.39-3.09,3.09Z"/>
        <path class="cls-1" d="M233.88,10.89v14.38c0,6.26-3.32,10.36-8.35,10.36-2.63,0-3.94-.85-5.1-1.78h-.93l.46,3.25v15.54c0,1.7,1.39,3.09,3.09,3.09s3.09-1.39,3.09-3.09v-10.83h7.73v10.83c0,6.57-4.56,10.82-10.82,10.82s-10.82-4.25-10.82-10.82V10.89c0-6.57,4.56-10.82,10.82-10.82s10.82,4.25,10.82,10.82ZM219.96,10.89v15.93c.62.7,1.55,1.08,3.09,1.08,1.7,0,3.09-1.39,3.09-3.09v-13.92c0-1.7-1.39-3.09-3.09-3.09s-3.09,1.39-3.09,3.09Z"/>
        <path class="cls-1" d="M260.17,10.89v10.83h-7.73v-10.83c0-1.7-1.39-3.09-3.09-3.09s-3.09,1.39-3.09,3.09v1.55c0,5.03.15,8.43,3.48,12.99l5.26,7.19c4.95,6.73,5.18,10.52,5.18,18.48v1.55c0,6.57-4.56,10.82-10.82,10.82s-10.82-4.25-10.82-10.82v-10.83h7.73v10.83c0,1.7,1.39,3.09,3.09,3.09s3.09-1.39,3.09-3.09v-1.55c0-6.73,0-9.05-4.25-14.92l-5.34-7.35c-3.94-5.49-4.33-9.9-4.33-16.39v-1.55c0-6.57,4.56-10.82,10.82-10.82s10.82,4.25,10.82,10.82Z"/>
      </g>
    </g>
  </g>
</svg>